<svg width="19" height="18" viewBox="0 0 19 18" fill="none" xmlns="http://www.w3.org/2000/svg">
<path d="M5.25033 2.33329C5.71056 2.33329 6.08366 1.9602 6.08366 1.49996C6.08366 1.03972 5.71056 0.666626 5.25033 0.666626H4.00033C2.15938 0.666626 0.666992 2.15901 0.666992 3.99996V14C0.666992 15.8409 2.15938 17.3333 4.00033 17.3333H5.25033C5.71056 17.3333 6.08366 16.9602 6.08366 16.5C6.08366 16.0397 5.71056 15.6666 5.25033 15.6666H4.00033C3.07985 15.6666 2.33366 14.9204 2.33366 14L2.33366 3.99996C2.33366 3.07948 3.07985 2.33329 4.00033 2.33329H5.25033Z" fill="white"/>
<path d="M17.9229 9.58922C18.2484 9.26378 18.2484 8.73614 17.9229 8.4107L14.5896 5.07737C14.2641 4.75193 13.7365 4.75193 13.4111 5.07737C13.0856 5.40281 13.0856 5.93044 13.4111 6.25588L15.3218 8.16663L5.66699 8.16663C5.20675 8.16663 4.83366 8.53972 4.83366 8.99996C4.83366 9.4602 5.20675 9.83329 5.66699 9.83329L15.3218 9.83329L13.4111 11.744C13.0856 12.0695 13.0856 12.5971 13.4111 12.9225C13.7365 13.248 14.2641 13.248 14.5896 12.9225L17.9229 9.58922Z" fill="white"/>
</svg>

