<svg width="10" height="10" viewBox="0 0 24 24" fill="none" xmlns="http://www.w3.org/2000/svg">
                <g clip-path="url(#clip0_63_2773)">
                    <path d="M12.0002 0C18.6278 0 24.0002 5.3724 24.0002 12V20.4C24.0002 21.3548 23.621 22.2705 22.9458 22.9456C22.2707 23.6207 21.355 24 20.4002 24H12.6002V18.7356C12.6002 17.5344 12.6734 16.29 13.3034 15.2676C13.7545 14.5349 14.3578 13.9078 15.0726 13.4288C15.7873 12.9498 16.5967 12.6301 17.4458 12.4914L17.6756 12.4542C17.7704 12.4218 17.8526 12.3606 17.9109 12.2792C17.9691 12.1977 18.0004 12.1001 18.0004 12C18.0004 11.8999 17.9691 11.8023 17.9109 11.7208C17.8526 11.6394 17.7704 11.5782 17.6756 11.5458L17.4458 11.5086C16.2052 11.3059 15.0595 10.7187 14.1705 9.82973C13.2816 8.94079 12.6943 7.7951 12.4916 6.5544L12.4544 6.3246C12.4221 6.22986 12.3609 6.14762 12.2794 6.08939C12.198 6.03116 12.1004 5.99985 12.0002 5.99985C11.9001 5.99985 11.8025 6.03116 11.7211 6.08939C11.6396 6.14762 11.5784 6.22986 11.546 6.3246L11.5088 6.5544C11.3702 7.40356 11.0505 8.21297 10.5715 8.92771C10.0925 9.64244 9.46537 10.2458 8.73265 10.6968C7.71025 11.3268 6.46585 11.4 5.26465 11.4H0.0146484C0.328448 5.0514 5.57425 0 12.0002 0Z" fill="#1570EF" />
                    <path d="M0 12.6H5.2644C6.4656 12.6 7.71 12.6732 8.7324 13.3032C9.53158 13.7957 10.2043 14.4684 10.6968 15.2676C11.3268 16.29 11.4 17.5344 11.4 18.7356V24H3.6C2.64522 24 1.72955 23.6207 1.05442 22.9456C0.379285 22.2705 0 21.3548 0 20.4L0 12.6ZM24 1.2C24 1.51826 23.8736 1.82348 23.6485 2.04853C23.4235 2.27357 23.1183 2.4 22.8 2.4C22.4817 2.4 22.1765 2.27357 21.9515 2.04853C21.7264 1.82348 21.6 1.51826 21.6 1.2C21.6 0.88174 21.7264 0.576516 21.9515 0.351472C22.1765 0.126428 22.4817 0 22.8 0C23.1183 0 23.4235 0.126428 23.6485 0.351472C23.8736 0.576516 24 0.88174 24 1.2Z" fill="#1570EF" />
                </g>
                <defs>
                    <clipPath id="clip0_63_2773">
                        <rect width="24" height="24" fill="white" />
                    </clipPath>
                </defs>
            </svg>